<svg width="699" height="699" viewBox="0 0 699 699" fill="none" xmlns="http://www.w3.org/2000/svg">
<g clip-path="url(#clip0_700_7)">
<rect width="699" height="699" fill="#F6F6F6"/>
<path d="M212.276 281.451C212.276 204.835 274.378 142.726 350.984 142.726C427.59 142.726 489.691 204.835 489.691 281.451V314.903C489.691 391.519 427.59 453.629 350.984 453.629C274.378 453.629 212.276 391.519 212.276 314.903V281.451Z" fill="#E1E2E4"/>
<path d="M108 617.934C108 538.601 172.304 474.289 251.626 474.289H448.374C527.696 474.289 592 538.601 592 617.934V653.354C592 732.687 527.696 796.999 448.374 796.999H251.626C172.304 796.999 108 732.687 108 653.354V617.934Z" fill="#E1E2E4"/>
</g>
<defs>
<clipPath id="clip0_700_7">
<rect width="699" height="699" fill="white"/>
</clipPath>
</defs>
</svg>
