<svg width="18" height="14" viewBox="0 0 18 14" fill="none" xmlns="http://www.w3.org/2000/svg">
<path d="M15.625 5.88672C15.231 5.71375 14.8053 5.62463 14.375 5.625H3.125C2.69473 5.62458 2.26907 5.71357 1.875 5.88633C1.31805 6.12989 0.844116 6.53043 0.511131 7.039C0.178145 7.54756 0.000532206 8.14212 0 8.75V13.125C0 13.2908 0.065848 13.4497 0.183058 13.5669C0.300268 13.6842 0.45924 13.75 0.625 13.75C0.79076 13.75 0.949732 13.6842 1.06694 13.5669C1.18415 13.4497 1.25 13.2908 1.25 13.125V12.8125C1.25101 12.7299 1.28426 12.651 1.34265 12.5926C1.40104 12.5343 1.47993 12.501 1.5625 12.5H15.9375C16.0201 12.501 16.099 12.5343 16.1574 12.5926C16.2157 12.651 16.249 12.7299 16.25 12.8125V13.125C16.25 13.2908 16.3158 13.4497 16.4331 13.5669C16.5503 13.6842 16.7092 13.75 16.875 13.75C17.0408 13.75 17.1997 13.6842 17.3169 13.5669C17.4342 13.4497 17.5 13.2908 17.5 13.125V8.75C17.4994 8.14219 17.3217 7.54771 16.9888 7.03922C16.6558 6.53073 16.1819 6.13025 15.625 5.88672ZM13.4375 0H4.0625C3.48234 0 2.92594 0.230468 2.5157 0.640704C2.10547 1.05094 1.875 1.60734 1.875 2.1875V5C1.87502 5.02421 1.88066 5.04809 1.89149 5.06975C1.90231 5.09141 1.91803 5.11025 1.93738 5.1248C1.95674 5.13934 1.97921 5.14919 2.00303 5.15357C2.02684 5.15794 2.05135 5.15672 2.07461 5.15C2.4158 5.05021 2.76951 4.9997 3.125 5H3.29023C3.3288 5.00024 3.3661 4.98622 3.39494 4.96062C3.42379 4.93502 3.44215 4.89965 3.44648 4.86133C3.48057 4.55593 3.62596 4.2738 3.85488 4.0688C4.0838 3.8638 4.38021 3.75031 4.6875 3.75H6.875C7.18249 3.75002 7.47919 3.86339 7.70835 4.06841C7.93752 4.27343 8.08308 4.55573 8.11719 4.86133C8.12153 4.89965 8.13988 4.93502 8.16873 4.96062C8.19758 4.98622 8.23487 5.00024 8.27344 5H9.22891C9.26747 5.00024 9.30477 4.98622 9.33361 4.96062C9.36246 4.93502 9.38082 4.89965 9.38516 4.86133C9.41922 4.55613 9.56444 4.27416 9.79312 4.06919C10.0218 3.86422 10.3179 3.7506 10.625 3.75H12.8125C13.12 3.75002 13.4167 3.86339 13.6459 4.06841C13.875 4.27343 14.0206 4.55573 14.0547 4.86133C14.059 4.89965 14.0774 4.93502 14.1062 4.96062C14.1351 4.98622 14.1724 5.00024 14.2109 5H14.375C14.7305 4.99983 15.0842 5.05047 15.4254 5.15039C15.4487 5.15712 15.4732 5.15833 15.4971 5.15394C15.5209 5.14955 15.5434 5.13966 15.5628 5.12507C15.5821 5.11048 15.5978 5.09159 15.6086 5.06988C15.6194 5.04817 15.625 5.02425 15.625 5V2.1875C15.625 1.60734 15.3945 1.05094 14.9843 0.640704C14.5741 0.230468 14.0177 0 13.4375 0Z" fill="#007AFF"/>
</svg>
